<svg xmlns="http://www.w3.org/2000/svg" version="1.1" xmlns:xlink="http://www.w3.org/1999/xlink" xmlns:svgjs="http://svgjs.dev/svgjs" width="1500" height="1500" viewBox="0 0 1500 1500"><rect width="1500" height="1500" fill="#fafafa"></rect><g transform="matrix(0.6666666666666666,0,0,0.6666666666666666,249.39393939393938,658.5137756769115)"><svg viewBox="0 0 396 72" data-background-color="#fafafa" preserveAspectRatio="xMidYMid meet" height="272" width="1500" xmlns="http://www.w3.org/2000/svg" xmlns:xlink="http://www.w3.org/1999/xlink"><g id="tight-bounds" transform="matrix(1,0,0,1,0.2400000000000091,0.32541259887344154)"><svg viewBox="0 0 395.52 71.34911401908931" height="71.34911401908931" width="395.52"><g><svg viewBox="0 0 493.6046907004713 89.0429241432677" height="71.34911401908931" width="395.52"><g transform="matrix(1,0,0,1,98.0846907004713,12.306221788251904)"><svg viewBox="0 0 395.52 64.43048056676389" height="64.43048056676389" width="395.52"><g id="textblocktransform"><svg viewBox="0 0 395.52 64.43048056676389" height="64.43048056676389" width="395.52" id="textblock"><g><svg viewBox="0 0 395.52 38.30023618327822" height="38.30023618327822" width="395.52"><g transform="matrix(1,0,0,1,0,0)"><svg width="395.52" viewBox="2.9 -38.75 529.2 51.25" height="38.30023618327822" data-palette-color="#130912"><path d="M18.85 0.65L18.85 0.65Q15.45 0.65 12.53-0.63 9.6-1.9 7.45-4.35 5.3-6.8 4.1-10.33 2.9-13.85 2.9-18.3L2.9-18.3Q2.9-22.75 4.13-26.28 5.35-29.8 7.55-32.25 9.75-34.7 12.7-36 15.65-37.3 19.15-37.3L19.15-37.3Q22.5-37.3 25.05-35.93 27.6-34.55 29.2-32.8L29.2-32.8 26.7-29.8Q25.25-31.35 23.4-32.3 21.55-33.25 19.2-33.25L19.2-33.25Q15.75-33.25 13.15-31.45 10.55-29.65 9.1-26.33 7.65-23 7.65-18.45L7.65-18.45Q7.65-13.8 9.05-10.43 10.45-7.05 13-5.23 15.55-3.4 19.05-3.4L19.05-3.4Q21.65-3.4 23.73-4.5 25.8-5.6 27.55-7.55L27.55-7.55 30.1-4.6Q27.95-2.1 25.2-0.73 22.45 0.65 18.85 0.65ZM42.75 0.65L42.75 0.65Q40.5 0.65 38.7-0.25 36.9-1.15 35.87-2.88 34.85-4.6 34.85-7.05L34.85-7.05Q34.85-11.5 38.82-13.88 42.8-16.25 51.5-17.2L51.5-17.2Q51.5-18.95 51.02-20.53 50.55-22.1 49.35-23.08 48.15-24.05 45.9-24.05L45.9-24.05Q43.55-24.05 41.47-23.13 39.4-22.2 37.75-21.15L37.75-21.15 36-24.3Q37.25-25.1 38.9-25.93 40.55-26.75 42.5-27.3 44.45-27.85 46.65-27.85L46.65-27.85Q49.95-27.85 52.02-26.45 54.1-25.05 55.07-22.58 56.05-20.1 56.05-16.7L56.05-16.7 56.05 0 52.3 0 51.9-3.25 51.75-3.25Q49.85-1.65 47.57-0.5 45.3 0.65 42.75 0.65ZM44.05-3.05L44.05-3.05Q46-3.05 47.77-3.95 49.55-4.85 51.5-6.6L51.5-6.6 51.5-14.15Q46.95-13.65 44.25-12.73 41.55-11.8 40.4-10.48 39.25-9.15 39.25-7.35L39.25-7.35Q39.25-5 40.65-4.03 42.05-3.05 44.05-3.05ZM69.25 0L64.64 0 64.64-27.15 68.39-27.15 68.84-22.2 68.95-22.2Q70.34-24.8 72.37-26.33 74.4-27.85 76.65-27.85L76.65-27.85Q77.59-27.85 78.27-27.73 78.95-27.6 79.55-27.25L79.55-27.25 78.7-23.3Q78-23.5 77.45-23.63 76.9-23.75 76.05-23.75L76.05-23.75Q74.4-23.75 72.5-22.33 70.59-20.9 69.25-17.45L69.25-17.45 69.25 0ZM94.34 0.65L94.34 0.65Q90.69 0.65 87.74-1.05 84.79-2.75 83.07-5.93 81.34-9.1 81.34-13.55L81.34-13.55Q81.34-16.9 82.34-19.53 83.34-22.15 85.07-24.03 86.79-25.9 88.99-26.88 91.19-27.85 93.49-27.85L93.49-27.85Q96.99-27.85 99.39-26.3 101.79-24.75 103.07-21.88 104.34-19 104.34-15.1L104.34-15.1Q104.34-14.35 104.29-13.7 104.24-13.05 104.14-12.5L104.14-12.5 85.84-12.5Q85.99-9.6 87.17-7.48 88.34-5.35 90.29-4.17 92.24-3 94.84-3L94.84-3Q96.84-3 98.47-3.58 100.09-4.15 101.64-5.15L101.64-5.15 103.24-2.1Q101.49-0.95 99.29-0.15 97.09 0.65 94.34 0.65ZM85.79-15.75L85.79-15.75 100.34-15.75Q100.34-19.85 98.57-22.03 96.79-24.2 93.59-24.2L93.59-24.2Q91.69-24.2 90.02-23.2 88.34-22.2 87.22-20.35 86.09-18.5 85.79-15.75ZM136.49 0.65L136.49 0.65Q133.09 0.65 130.16-0.63 127.24-1.9 125.09-4.35 122.94-6.8 121.74-10.33 120.54-13.85 120.54-18.3L120.54-18.3Q120.54-22.75 121.76-26.28 122.99-29.8 125.19-32.25 127.39-34.7 130.34-36 133.29-37.3 136.79-37.3L136.79-37.3Q140.14-37.3 142.69-35.93 145.24-34.55 146.84-32.8L146.84-32.8 144.34-29.8Q142.89-31.35 141.04-32.3 139.19-33.25 136.84-33.25L136.84-33.25Q133.39-33.25 130.79-31.45 128.19-29.65 126.74-26.33 125.29-23 125.29-18.45L125.29-18.45Q125.29-13.8 126.69-10.43 128.09-7.05 130.64-5.23 133.19-3.4 136.69-3.4L136.69-3.4Q139.29-3.4 141.36-4.5 143.44-5.6 145.19-7.55L145.19-7.55 147.74-4.6Q145.59-2.1 142.84-0.73 140.09 0.65 136.49 0.65ZM164.69 0.65L164.69 0.65Q161.39 0.65 158.49-1.03 155.59-2.7 153.86-5.88 152.14-9.05 152.14-13.55L152.14-13.55Q152.14-18.1 153.86-21.28 155.59-24.45 158.49-26.15 161.39-27.85 164.69-27.85L164.69-27.85Q167.19-27.85 169.46-26.9 171.74-25.95 173.49-24.1 175.24-22.25 176.24-19.6 177.24-16.95 177.24-13.55L177.24-13.55Q177.24-9.05 175.49-5.88 173.74-2.7 170.89-1.03 168.04 0.65 164.69 0.65ZM164.69-3.15L164.69-3.15Q167.04-3.15 168.81-4.45 170.59-5.75 171.59-8.1 172.59-10.45 172.59-13.55L172.59-13.55Q172.59-16.7 171.59-19.05 170.59-21.4 168.81-22.7 167.04-24 164.69-24L164.69-24Q162.34-24 160.56-22.7 158.79-21.4 157.81-19.05 156.84-16.7 156.84-13.55L156.84-13.55Q156.84-10.45 157.81-8.1 158.79-5.75 160.56-4.45 162.34-3.15 164.69-3.15ZM189.03 0L184.43 0 184.43-27.15 188.18-27.15 188.63-23.2 188.73-23.2Q190.53-25.15 192.66-26.5 194.78-27.85 197.18-27.85L197.18-27.85Q200.33-27.85 202.08-26.45 203.83-25.05 204.68-22.65L204.68-22.65Q206.83-24.95 209.01-26.4 211.18-27.85 213.68-27.85L213.68-27.85Q217.83-27.85 219.86-25.13 221.88-22.4 221.88-17.2L221.88-17.2 221.88 0 217.33 0 217.33-16.6Q217.33-20.45 216.11-22.15 214.88-23.85 212.28-23.85L212.28-23.85Q210.73-23.85 209.06-22.83 207.38-21.8 205.43-19.7L205.43-19.7 205.43 0 200.88 0 200.88-16.6Q200.88-20.45 199.66-22.15 198.43-23.85 195.83-23.85L195.83-23.85Q194.28-23.85 192.58-22.83 190.88-21.8 189.03-19.7L189.03-19.7 189.03 0ZM235.33 11.45L230.73 11.45 230.73-27.15 234.48-27.15 234.93-24 235.03-24Q236.88-25.55 239.11-26.7 241.33-27.85 243.68-27.85L243.68-27.85Q247.18-27.85 249.61-26.13 252.03-24.4 253.26-21.3 254.48-18.2 254.48-14L254.48-14Q254.48-9.35 252.81-6.08 251.13-2.8 248.46-1.07 245.78 0.65 242.68 0.65L242.68 0.65Q240.83 0.65 238.93-0.18 237.03-1 235.18-2.5L235.18-2.5 235.33 2.25 235.33 11.45ZM241.93-3.2L241.93-3.2Q244.18-3.2 245.96-4.48 247.73-5.75 248.73-8.18 249.73-10.6 249.73-13.95L249.73-13.95Q249.73-16.95 249.01-19.23 248.28-21.5 246.73-22.75 245.18-24 242.53-24L242.53-24Q240.83-24 239.06-23.05 237.28-22.1 235.33-20.3L235.33-20.3 235.33-6Q237.13-4.45 238.88-3.83 240.63-3.2 241.93-3.2ZM269.68 0.65L269.68 0.65Q265.38 0.65 263.35-2.05 261.33-4.75 261.33-9.95L261.33-9.95 261.33-27.15 265.93-27.15 265.93-10.5Q265.93-6.75 267.13-5.03 268.33-3.3 271.03-3.3L271.03-3.3Q273.13-3.3 274.78-4.4 276.43-5.5 278.38-7.9L278.38-7.9 278.38-27.15 282.93-27.15 282.93 0 279.13 0 278.78-4.25 278.63-4.25Q276.73-2.05 274.6-0.7 272.48 0.65 269.68 0.65ZM300.58 0.65L300.58 0.65Q297.73 0.65 296.03-0.48 294.33-1.6 293.6-3.65 292.88-5.7 292.88-8.4L292.88-8.4 292.88-23.45 288.83-23.45 288.83-26.9 293.13-27.15 293.63-34.8 297.43-34.8 297.43-27.15 304.83-27.15 304.83-23.45 297.43-23.45 297.43-8.25Q297.43-5.8 298.35-4.42 299.28-3.05 301.63-3.05L301.63-3.05Q302.38-3.05 303.23-3.28 304.08-3.5 304.73-3.8L304.73-3.8 305.63-0.35Q304.48 0.05 303.18 0.35 301.88 0.65 300.58 0.65ZM315.52 0L310.92 0 310.92-27.15 315.52-27.15 315.52 0ZM313.22-32.75L313.22-32.75Q311.87-32.75 311.05-33.58 310.22-34.4 310.22-35.8L310.22-35.8Q310.22-37.15 311.05-37.95 311.87-38.75 313.22-38.75L313.22-38.75Q314.57-38.75 315.42-37.95 316.27-37.15 316.27-35.8L316.27-35.8Q316.27-34.4 315.42-33.58 314.57-32.75 313.22-32.75ZM329.27 0L324.67 0 324.67-27.15 328.42-27.15 328.87-23.2 328.97-23.2Q330.92-25.15 333.1-26.5 335.27-27.85 338.07-27.85L338.07-27.85Q342.37-27.85 344.37-25.13 346.37-22.4 346.37-17.2L346.37-17.2 346.37 0 341.82 0 341.82-16.6Q341.82-20.45 340.6-22.15 339.37-23.85 336.67-23.85L336.67-23.85Q334.57-23.85 332.92-22.8 331.27-21.75 329.27-19.7L329.27-19.7 329.27 0ZM364.32 12.5L364.32 12.5Q361.02 12.5 358.47 11.65 355.92 10.8 354.52 9.18 353.12 7.55 353.12 5.25L353.12 5.25Q353.12 3.5 354.17 1.88 355.22 0.25 357.12-0.9L357.12-0.9 357.12-1.15Q356.07-1.8 355.37-2.9 354.67-4 354.67-5.6L354.67-5.6Q354.67-7.3 355.64-8.6 356.62-9.9 357.67-10.65L357.67-10.65 357.67-10.85Q356.32-11.9 355.22-13.8 354.12-15.7 354.12-18.15L354.12-18.15Q354.12-21.15 355.52-23.33 356.92-25.5 359.24-26.68 361.57-27.85 364.27-27.85L364.27-27.85Q365.47-27.85 366.44-27.65 367.42-27.45 368.12-27.15L368.12-27.15 377.57-27.15 377.57-23.65 372.02-23.65Q373.02-22.7 373.62-21.25 374.22-19.8 374.22-18.05L374.22-18.05Q374.22-15.15 372.89-13.03 371.57-10.9 369.32-9.75 367.07-8.6 364.27-8.6L364.27-8.6Q363.32-8.6 362.24-8.85 361.17-9.1 360.27-9.55L360.27-9.55Q359.52-8.95 359.02-8.2 358.52-7.45 358.52-6.3L358.52-6.3Q358.52-5.05 359.52-4.2 360.52-3.35 363.27-3.35L363.27-3.35 368.62-3.35Q373.32-3.35 375.69-1.8 378.07-0.25 378.07 3.1L378.07 3.1Q378.07 5.6 376.37 7.75 374.67 9.9 371.59 11.2 368.52 12.5 364.32 12.5ZM364.27-11.7L364.27-11.7Q365.87-11.7 367.19-12.5 368.52-13.3 369.29-14.75 370.07-16.2 370.07-18.15L370.07-18.15Q370.07-20.15 369.29-21.58 368.52-23 367.22-23.75 365.92-24.5 364.27-24.5L364.27-24.5Q362.72-24.5 361.39-23.75 360.07-23 359.29-21.6 358.52-20.2 358.52-18.15L358.52-18.15Q358.52-16.2 359.32-14.75 360.12-13.3 361.42-12.5 362.72-11.7 364.27-11.7ZM364.97 9.35L364.97 9.35Q367.57 9.35 369.49 8.55 371.42 7.75 372.49 6.48 373.57 5.2 373.57 3.85L373.57 3.85Q373.57 1.9 372.17 1.15 370.77 0.4 368.07 0.4L368.07 0.4 363.37 0.4Q362.62 0.4 361.69 0.33 360.77 0.25 359.87 0L359.87 0Q358.42 1 357.77 2.23 357.12 3.45 357.12 4.6L357.12 4.6Q357.12 6.75 359.19 8.05 361.27 9.35 364.97 9.35ZM409.41 0.65L409.41 0.65Q404.56 0.65 400.84-1.6 397.11-3.85 394.99-8.1 392.86-12.35 392.86-18.3L392.86-18.3Q392.86-22.75 394.11-26.28 395.36-29.8 397.64-32.25 399.91-34.7 402.96-36 406.01-37.3 409.66-37.3L409.66-37.3Q413.51-37.3 416.06-35.88 418.61-34.45 420.21-32.8L420.21-32.8 417.71-29.8Q416.31-31.25 414.44-32.25 412.56-33.25 409.81-33.25L409.81-33.25Q406.11-33.25 403.36-31.45 400.61-29.65 399.11-26.33 397.61-23 397.61-18.45L397.61-18.45Q397.61-13.8 399.04-10.43 400.46-7.05 403.21-5.23 405.96-3.4 409.86-3.4L409.86-3.4Q411.81-3.4 413.59-3.98 415.36-4.55 416.46-5.55L416.46-5.55 416.46-15.15 408.66-15.15 408.66-19 420.71-19 420.71-3.6Q418.91-1.75 415.99-0.55 413.06 0.65 409.41 0.65ZM433.61 0L429.01 0 429.01-27.15 432.76-27.15 433.21-22.2 433.31-22.2Q434.71-24.8 436.74-26.33 438.76-27.85 441.01-27.85L441.01-27.85Q441.96-27.85 442.64-27.73 443.31-27.6 443.91-27.25L443.91-27.25 443.06-23.3Q442.36-23.5 441.81-23.63 441.26-23.75 440.41-23.75L440.41-23.75Q438.76-23.75 436.86-22.33 434.96-20.9 433.61-17.45L433.61-17.45 433.61 0ZM458.26 0.65L458.26 0.65Q454.96 0.65 452.06-1.03 449.16-2.7 447.43-5.88 445.71-9.05 445.71-13.55L445.71-13.55Q445.71-18.1 447.43-21.28 449.16-24.45 452.06-26.15 454.96-27.85 458.26-27.85L458.26-27.85Q460.76-27.85 463.03-26.9 465.31-25.95 467.06-24.1 468.81-22.25 469.81-19.6 470.81-16.95 470.81-13.55L470.81-13.55Q470.81-9.05 469.06-5.88 467.31-2.7 464.46-1.03 461.61 0.65 458.26 0.65ZM458.26-3.15L458.26-3.15Q460.61-3.15 462.38-4.45 464.16-5.75 465.16-8.1 466.16-10.45 466.16-13.55L466.16-13.55Q466.16-16.7 465.16-19.05 464.16-21.4 462.38-22.7 460.61-24 458.26-24L458.26-24Q455.91-24 454.13-22.7 452.36-21.4 451.38-19.05 450.41-16.7 450.41-13.55L450.41-13.55Q450.41-10.45 451.38-8.1 452.36-5.75 454.13-4.45 455.91-3.15 458.26-3.15ZM485.96 0.65L485.96 0.65Q481.66 0.65 479.63-2.05 477.61-4.75 477.61-9.95L477.61-9.95 477.61-27.15 482.21-27.15 482.21-10.5Q482.21-6.75 483.41-5.03 484.61-3.3 487.31-3.3L487.31-3.3Q489.41-3.3 491.06-4.4 492.71-5.5 494.66-7.9L494.66-7.9 494.66-27.15 499.21-27.15 499.21 0 495.41 0 495.06-4.25 494.91-4.25Q493.01-2.05 490.88-0.7 488.76 0.65 485.96 0.65ZM512.95 11.45L508.35 11.45 508.35-27.15 512.1-27.15 512.55-24 512.65-24Q514.5-25.55 516.73-26.7 518.95-27.85 521.3-27.85L521.3-27.85Q524.8-27.85 527.23-26.13 529.65-24.4 530.88-21.3 532.1-18.2 532.1-14L532.1-14Q532.1-9.35 530.43-6.08 528.75-2.8 526.08-1.07 523.4 0.65 520.3 0.65L520.3 0.65Q518.45 0.65 516.55-0.18 514.65-1 512.8-2.5L512.8-2.5 512.95 2.25 512.95 11.45ZM519.55-3.2L519.55-3.2Q521.8-3.2 523.58-4.48 525.35-5.75 526.35-8.18 527.35-10.6 527.35-13.95L527.35-13.95Q527.35-16.95 526.63-19.23 525.9-21.5 524.35-22.75 522.8-24 520.15-24L520.15-24Q518.45-24 516.68-23.05 514.9-22.1 512.95-20.3L512.95-20.3 512.95-6Q514.75-4.45 516.5-3.83 518.25-3.2 519.55-3.2Z" opacity="1" transform="matrix(1,0,0,1,0,0)" fill="#130912" class="wordmark-text-0" data-fill-palette-color="primary" id="text-0"></path></svg></g></svg></g><g transform="matrix(1,0,0,1,0,47.34200274048182)"><svg viewBox="0 0 395.52 17.088477826282077" height="17.088477826282077" width="395.52"><g transform="matrix(1,0,0,1,0,0)"><svg width="395.52" viewBox="5.05 -40.45 1225.43 52.95" height="17.088477826282077" data-palette-color="#130912"><path d="M14.4 0L5.05 0 5.05-36.65 14.2-36.65Q19.85-36.65 23.7-34.52 27.55-32.4 29.5-28.35 31.45-24.3 31.45-18.45L31.45-18.45Q31.45-12.65 29.5-8.5 27.55-4.35 23.75-2.18 19.95 0 14.4 0L14.4 0ZM9.65-32.9L9.65-3.8 13.8-3.8Q18.1-3.8 20.98-5.53 23.85-7.25 25.28-10.55 26.7-13.85 26.7-18.45L26.7-18.45Q26.7-23.15 25.28-26.35 23.85-29.55 20.98-31.23 18.1-32.9 13.8-32.9L13.8-32.9 9.65-32.9ZM50 0.65L50 0.65Q46.35 0.65 43.4-1.05 40.45-2.75 38.72-5.93 37-9.1 37-13.55L37-13.55Q37-16.9 38-19.53 39-22.15 40.72-24.03 42.45-25.9 44.65-26.88 46.85-27.85 49.15-27.85L49.15-27.85Q52.65-27.85 55.05-26.3 57.45-24.75 58.72-21.88 60-19 60-15.1L60-15.1Q60-14.35 59.95-13.7 59.9-13.05 59.8-12.5L59.8-12.5 41.5-12.5Q41.65-9.6 42.82-7.48 44-5.35 45.95-4.17 47.9-3 50.5-3L50.5-3Q52.5-3 54.12-3.58 55.75-4.15 57.3-5.15L57.3-5.15 58.9-2.1Q57.15-0.95 54.95-0.15 52.75 0.65 50 0.65ZM41.45-15.75L41.45-15.75 56-15.75Q56-19.85 54.22-22.03 52.45-24.2 49.25-24.2L49.25-24.2Q47.35-24.2 45.67-23.2 44-22.2 42.87-20.35 41.75-18.5 41.45-15.75ZM73.8 0.65L73.8 0.65Q70.95 0.65 68.27-0.43 65.59-1.5 63.7-3.1L63.7-3.1 65.9-6.15Q67.7-4.7 69.59-3.8 71.5-2.9 73.95-2.9L73.95-2.9Q76.65-2.9 77.97-4.13 79.3-5.35 79.3-7.15L79.3-7.15Q79.3-8.55 78.37-9.47 77.45-10.4 76.02-11.08 74.59-11.75 73.09-12.3L73.09-12.3Q71.2-13.05 69.37-13.98 67.55-14.9 66.37-16.38 65.2-17.85 65.2-20.15L65.2-20.15Q65.2-22.35 66.3-24.08 67.4-25.8 69.5-26.83 71.59-27.85 74.55-27.85L74.55-27.85Q77.05-27.85 79.22-26.95 81.4-26.05 82.95-24.75L82.95-24.75 80.75-21.9Q79.34-22.9 77.87-23.6 76.4-24.3 74.59-24.3L74.59-24.3Q72-24.3 70.77-23.13 69.55-21.95 69.55-20.35L69.55-20.35Q69.55-19.1 70.37-18.25 71.2-17.4 72.55-16.82 73.9-16.25 75.4-15.65L75.4-15.65Q76.9-15.1 78.37-14.45 79.84-13.8 81.02-12.9 82.2-12 82.92-10.68 83.65-9.35 83.65-7.4L83.65-7.4Q83.65-5.2 82.52-3.35 81.4-1.5 79.22-0.43 77.05 0.65 73.8 0.65ZM94.69 0L90.09 0 90.09-27.15 94.69-27.15 94.69 0ZM92.39-32.75L92.39-32.75Q91.04-32.75 90.22-33.58 89.39-34.4 89.39-35.8L89.39-35.8Q89.39-37.15 90.22-37.95 91.04-38.75 92.39-38.75L92.39-38.75Q93.74-38.75 94.59-37.95 95.44-37.15 95.44-35.8L95.44-35.8Q95.44-34.4 94.59-33.58 93.74-32.75 92.39-32.75ZM112.99 12.5L112.99 12.5Q109.69 12.5 107.14 11.65 104.59 10.8 103.19 9.18 101.79 7.55 101.79 5.25L101.79 5.25Q101.79 3.5 102.84 1.88 103.89 0.25 105.79-0.9L105.79-0.9 105.79-1.15Q104.74-1.8 104.04-2.9 103.34-4 103.34-5.6L103.34-5.6Q103.34-7.3 104.32-8.6 105.29-9.9 106.34-10.65L106.34-10.65 106.34-10.85Q104.99-11.9 103.89-13.8 102.79-15.7 102.79-18.15L102.79-18.15Q102.79-21.15 104.19-23.33 105.59-25.5 107.92-26.68 110.24-27.85 112.94-27.85L112.94-27.85Q114.14-27.85 115.12-27.65 116.09-27.45 116.79-27.15L116.79-27.15 126.24-27.15 126.24-23.65 120.69-23.65Q121.69-22.7 122.29-21.25 122.89-19.8 122.89-18.05L122.89-18.05Q122.89-15.15 121.57-13.03 120.24-10.9 117.99-9.75 115.74-8.6 112.94-8.6L112.94-8.6Q111.99-8.6 110.92-8.85 109.84-9.1 108.94-9.55L108.94-9.55Q108.19-8.95 107.69-8.2 107.19-7.45 107.19-6.3L107.19-6.3Q107.19-5.05 108.19-4.2 109.19-3.35 111.94-3.35L111.94-3.35 117.29-3.35Q121.99-3.35 124.37-1.8 126.74-0.25 126.74 3.1L126.74 3.1Q126.74 5.6 125.04 7.75 123.34 9.9 120.27 11.2 117.19 12.5 112.99 12.5ZM112.94-11.7L112.94-11.7Q114.54-11.7 115.87-12.5 117.19-13.3 117.97-14.75 118.74-16.2 118.74-18.15L118.74-18.15Q118.74-20.15 117.97-21.58 117.19-23 115.89-23.75 114.59-24.5 112.94-24.5L112.94-24.5Q111.39-24.5 110.07-23.75 108.74-23 107.97-21.6 107.19-20.2 107.19-18.15L107.19-18.15Q107.19-16.2 107.99-14.75 108.79-13.3 110.09-12.5 111.39-11.7 112.94-11.7ZM113.64 9.35L113.64 9.35Q116.24 9.35 118.17 8.55 120.09 7.75 121.17 6.48 122.24 5.2 122.24 3.85L122.24 3.85Q122.24 1.9 120.84 1.15 119.44 0.4 116.74 0.4L116.74 0.4 112.04 0.4Q111.29 0.4 110.37 0.33 109.44 0.25 108.54 0L108.54 0Q107.09 1 106.44 2.23 105.79 3.45 105.79 4.6L105.79 4.6Q105.79 6.75 107.87 8.05 109.94 9.35 113.64 9.35ZM136.64 0L132.04 0 132.04-27.15 135.79-27.15 136.24-23.2 136.34-23.2Q138.29-25.15 140.46-26.5 142.64-27.85 145.44-27.85L145.44-27.85Q149.74-27.85 151.74-25.13 153.74-22.4 153.74-17.2L153.74-17.2 153.74 0 149.19 0 149.19-16.6Q149.19-20.45 147.96-22.15 146.74-23.85 144.04-23.85L144.04-23.85Q141.94-23.85 140.29-22.8 138.64-21.75 136.64-19.7L136.64-19.7 136.64 0ZM187.98 0.65L187.98 0.65Q184.58 0.65 181.66-0.63 178.73-1.9 176.58-4.35 174.43-6.8 173.23-10.33 172.03-13.85 172.03-18.3L172.03-18.3Q172.03-22.75 173.26-26.28 174.48-29.8 176.68-32.25 178.88-34.7 181.83-36 184.78-37.3 188.28-37.3L188.28-37.3Q191.63-37.3 194.18-35.93 196.73-34.55 198.33-32.8L198.33-32.8 195.83-29.8Q194.38-31.35 192.53-32.3 190.68-33.25 188.33-33.25L188.33-33.25Q184.88-33.25 182.28-31.45 179.68-29.65 178.23-26.33 176.78-23 176.78-18.45L176.78-18.45Q176.78-13.8 178.18-10.43 179.58-7.05 182.13-5.23 184.68-3.4 188.18-3.4L188.18-3.4Q190.78-3.4 192.86-4.5 194.93-5.6 196.68-7.55L196.68-7.55 199.23-4.6Q197.08-2.1 194.33-0.73 191.58 0.65 187.98 0.65ZM216.18 0.65L216.18 0.65Q212.88 0.65 209.98-1.03 207.08-2.7 205.35-5.88 203.63-9.05 203.63-13.55L203.63-13.55Q203.63-18.1 205.35-21.28 207.08-24.45 209.98-26.15 212.88-27.85 216.18-27.85L216.18-27.85Q218.68-27.85 220.96-26.9 223.23-25.95 224.98-24.1 226.73-22.25 227.73-19.6 228.73-16.95 228.73-13.55L228.73-13.55Q228.73-9.05 226.98-5.88 225.23-2.7 222.38-1.03 219.53 0.65 216.18 0.65ZM216.18-3.15L216.18-3.15Q218.53-3.15 220.31-4.45 222.08-5.75 223.08-8.1 224.08-10.45 224.08-13.55L224.08-13.55Q224.08-16.7 223.08-19.05 222.08-21.4 220.31-22.7 218.53-24 216.18-24L216.18-24Q213.83-24 212.06-22.7 210.28-21.4 209.31-19.05 208.33-16.7 208.33-13.55L208.33-13.55Q208.33-10.45 209.31-8.1 210.28-5.75 212.06-4.45 213.83-3.15 216.18-3.15ZM240.53 0L235.93 0 235.93-27.15 239.68-27.15 240.13-23.2 240.23-23.2Q242.03-25.15 244.15-26.5 246.28-27.85 248.68-27.85L248.68-27.85Q251.83-27.85 253.58-26.45 255.33-25.05 256.18-22.65L256.18-22.65Q258.33-24.95 260.5-26.4 262.68-27.85 265.18-27.85L265.18-27.85Q269.33-27.85 271.35-25.13 273.38-22.4 273.38-17.2L273.38-17.2 273.38 0 268.83 0 268.83-16.6Q268.83-20.45 267.6-22.15 266.38-23.85 263.78-23.85L263.78-23.85Q262.23-23.85 260.55-22.83 258.88-21.8 256.93-19.7L256.93-19.7 256.93 0 252.38 0 252.38-16.6Q252.38-20.45 251.15-22.15 249.93-23.85 247.33-23.85L247.33-23.85Q245.78-23.85 244.08-22.83 242.38-21.8 240.53-19.7L240.53-19.7 240.53 0ZM286.82 11.45L282.23 11.45 282.23-27.15 285.98-27.15 286.43-24 286.52-24Q288.38-25.55 290.6-26.7 292.82-27.85 295.18-27.85L295.18-27.85Q298.68-27.85 301.1-26.13 303.52-24.4 304.75-21.3 305.98-18.2 305.98-14L305.98-14Q305.98-9.35 304.3-6.08 302.63-2.8 299.95-1.07 297.27 0.65 294.18 0.65L294.18 0.65Q292.32 0.65 290.43-0.18 288.52-1 286.68-2.5L286.68-2.5 286.82 2.25 286.82 11.45ZM293.43-3.2L293.43-3.2Q295.68-3.2 297.45-4.48 299.23-5.75 300.23-8.18 301.23-10.6 301.23-13.95L301.23-13.95Q301.23-16.95 300.5-19.23 299.77-21.5 298.23-22.75 296.68-24 294.02-24L294.02-24Q292.32-24 290.55-23.05 288.77-22.1 286.82-20.3L286.82-20.3 286.82-6Q288.63-4.45 290.38-3.83 292.13-3.2 293.43-3.2ZM321.17 0.65L321.17 0.65Q316.87 0.65 314.85-2.05 312.82-4.75 312.82-9.95L312.82-9.95 312.82-27.15 317.42-27.15 317.42-10.5Q317.42-6.75 318.62-5.03 319.82-3.3 322.52-3.3L322.52-3.3Q324.62-3.3 326.27-4.4 327.92-5.5 329.87-7.9L329.87-7.9 329.87-27.15 334.42-27.15 334.42 0 330.62 0 330.27-4.25 330.12-4.25Q328.22-2.05 326.1-0.7 323.97 0.65 321.17 0.65ZM352.07 0.65L352.07 0.65Q349.22 0.65 347.52-0.48 345.82-1.6 345.1-3.65 344.37-5.7 344.37-8.4L344.37-8.4 344.37-23.45 340.32-23.45 340.32-26.9 344.62-27.15 345.12-34.8 348.92-34.8 348.92-27.15 356.32-27.15 356.32-23.45 348.92-23.45 348.92-8.25Q348.92-5.8 349.85-4.42 350.77-3.05 353.12-3.05L353.12-3.05Q353.87-3.05 354.72-3.28 355.57-3.5 356.22-3.8L356.22-3.8 357.12-0.35Q355.97 0.05 354.67 0.35 353.37 0.65 352.07 0.65ZM367.02 0L362.42 0 362.42-27.15 367.02-27.15 367.02 0ZM364.72-32.75L364.72-32.75Q363.37-32.75 362.54-33.58 361.72-34.4 361.72-35.8L361.72-35.8Q361.72-37.15 362.54-37.95 363.37-38.75 364.72-38.75L364.72-38.75Q366.07-38.75 366.92-37.95 367.77-37.15 367.77-35.8L367.77-35.8Q367.77-34.4 366.92-33.58 366.07-32.75 364.72-32.75ZM380.77 0L376.17 0 376.17-27.15 379.92-27.15 380.37-23.2 380.47-23.2Q382.42-25.15 384.59-26.5 386.77-27.85 389.57-27.85L389.57-27.85Q393.87-27.85 395.87-25.13 397.87-22.4 397.87-17.2L397.87-17.2 397.87 0 393.32 0 393.32-16.6Q393.32-20.45 392.09-22.15 390.87-23.85 388.17-23.85L388.17-23.85Q386.07-23.85 384.42-22.8 382.77-21.75 380.77-19.7L380.77-19.7 380.77 0ZM415.81 12.5L415.81 12.5Q412.51 12.5 409.96 11.65 407.41 10.8 406.01 9.18 404.61 7.55 404.61 5.25L404.61 5.25Q404.61 3.5 405.66 1.88 406.71 0.25 408.61-0.9L408.61-0.9 408.61-1.15Q407.56-1.8 406.86-2.9 406.16-4 406.16-5.6L406.16-5.6Q406.16-7.3 407.14-8.6 408.11-9.9 409.16-10.65L409.16-10.65 409.16-10.85Q407.81-11.9 406.71-13.8 405.61-15.7 405.61-18.15L405.61-18.15Q405.61-21.15 407.01-23.33 408.41-25.5 410.74-26.68 413.06-27.85 415.76-27.85L415.76-27.85Q416.96-27.85 417.94-27.65 418.91-27.45 419.61-27.15L419.61-27.15 429.06-27.15 429.06-23.65 423.51-23.65Q424.51-22.7 425.11-21.25 425.71-19.8 425.71-18.05L425.71-18.05Q425.71-15.15 424.39-13.03 423.06-10.9 420.81-9.75 418.56-8.6 415.76-8.6L415.76-8.6Q414.81-8.6 413.74-8.85 412.66-9.1 411.76-9.55L411.76-9.55Q411.01-8.95 410.51-8.2 410.01-7.45 410.01-6.3L410.01-6.3Q410.01-5.05 411.01-4.2 412.01-3.35 414.76-3.35L414.76-3.35 420.11-3.35Q424.81-3.35 427.19-1.8 429.56-0.25 429.56 3.1L429.56 3.1Q429.56 5.6 427.86 7.75 426.16 9.9 423.09 11.2 420.01 12.5 415.81 12.5ZM415.76-11.7L415.76-11.7Q417.36-11.7 418.69-12.5 420.01-13.3 420.79-14.75 421.56-16.2 421.56-18.15L421.56-18.15Q421.56-20.15 420.79-21.58 420.01-23 418.71-23.75 417.41-24.5 415.76-24.5L415.76-24.5Q414.21-24.5 412.89-23.75 411.56-23 410.79-21.6 410.01-20.2 410.01-18.15L410.01-18.15Q410.01-16.2 410.81-14.75 411.61-13.3 412.91-12.5 414.21-11.7 415.76-11.7ZM416.46 9.35L416.46 9.35Q419.06 9.35 420.99 8.55 422.91 7.75 423.99 6.48 425.06 5.2 425.06 3.85L425.06 3.85Q425.06 1.9 423.66 1.15 422.26 0.4 419.56 0.4L419.56 0.4 414.86 0.4Q414.11 0.4 413.19 0.33 412.26 0.25 411.36 0L411.36 0Q409.91 1 409.26 2.23 408.61 3.45 408.61 4.6L408.61 4.6Q408.61 6.75 410.69 8.05 412.76 9.35 416.46 9.35ZM434.01 9.5L434.01 9.5 432.91 6.8Q435.26 5.75 436.61 3.95 437.96 2.15 437.91-0.15L437.91-0.15 437.41-4.25 439.66-0.9Q439.16-0.35 438.59-0.13 438.01 0.1 437.36 0.1L437.36 0.1Q436.01 0.1 435.01-0.75 434.01-1.6 434.01-3.1L434.01-3.1Q434.01-4.6 435.04-5.45 436.06-6.3 437.46-6.3L437.46-6.3Q439.26-6.3 440.29-4.88 441.31-3.45 441.31-0.95L441.31-0.95Q441.31 2.65 439.34 5.35 437.36 8.05 434.01 9.5ZM482.06 0L460.41 0 460.41-36.65 481.5-36.65 481.5-32.75 465-32.75 465-21.25 478.91-21.25 478.91-17.3 465-17.3 465-3.95 482.06-3.95 482.06 0ZM494 0L489.4 0 489.4-27.15 493.15-27.15 493.6-23.2 493.7-23.2Q495.5-25.15 497.63-26.5 499.75-27.85 502.15-27.85L502.15-27.85Q505.3-27.85 507.05-26.45 508.8-25.05 509.65-22.65L509.65-22.65Q511.8-24.95 513.98-26.4 516.15-27.85 518.65-27.85L518.65-27.85Q522.8-27.85 524.83-25.13 526.85-22.4 526.85-17.2L526.85-17.2 526.85 0 522.3 0 522.3-16.6Q522.3-20.45 521.08-22.15 519.85-23.85 517.25-23.85L517.25-23.85Q515.7-23.85 514.03-22.83 512.35-21.8 510.4-19.7L510.4-19.7 510.4 0 505.85 0 505.85-16.6Q505.85-20.45 504.63-22.15 503.4-23.85 500.8-23.85L500.8-23.85Q499.25-23.85 497.55-22.83 495.85-21.8 494-19.7L494-19.7 494 0ZM540.3 11.45L535.7 11.45 535.7-27.15 539.45-27.15 539.9-24 540-24Q541.85-25.55 544.07-26.7 546.3-27.85 548.65-27.85L548.65-27.85Q552.15-27.85 554.57-26.13 557-24.4 558.22-21.3 559.45-18.2 559.45-14L559.45-14Q559.45-9.35 557.77-6.08 556.1-2.8 553.42-1.07 550.75 0.65 547.65 0.65L547.65 0.65Q545.8 0.65 543.9-0.18 542-1 540.15-2.5L540.15-2.5 540.3 2.25 540.3 11.45ZM546.9-3.2L546.9-3.2Q549.15-3.2 550.92-4.48 552.7-5.75 553.7-8.18 554.7-10.6 554.7-13.95L554.7-13.95Q554.7-16.95 553.97-19.23 553.25-21.5 551.7-22.75 550.15-24 547.5-24L547.5-24Q545.8-24 544.02-23.05 542.25-22.1 540.3-20.3L540.3-20.3 540.3-6Q542.1-4.45 543.85-3.83 545.6-3.2 546.9-3.2ZM577.25 0.65L577.25 0.65Q573.95 0.65 571.05-1.03 568.15-2.7 566.42-5.88 564.7-9.05 564.7-13.55L564.7-13.55Q564.7-18.1 566.42-21.28 568.15-24.45 571.05-26.15 573.95-27.85 577.25-27.85L577.25-27.85Q579.75-27.85 582.02-26.9 584.3-25.95 586.05-24.1 587.8-22.25 588.8-19.6 589.8-16.95 589.8-13.55L589.8-13.55Q589.8-9.05 588.05-5.88 586.3-2.7 583.45-1.03 580.6 0.65 577.25 0.65ZM577.25-3.15L577.25-3.15Q579.6-3.15 581.37-4.45 583.15-5.75 584.15-8.1 585.15-10.45 585.15-13.55L585.15-13.55Q585.15-16.7 584.15-19.05 583.15-21.4 581.37-22.7 579.6-24 577.25-24L577.25-24Q574.9-24 573.12-22.7 571.35-21.4 570.37-19.05 569.4-16.7 569.4-13.55L569.4-13.55Q569.4-10.45 570.37-8.1 571.35-5.75 573.12-4.45 574.9-3.15 577.25-3.15ZM606.24 0L600.94 0 593.39-27.15 598.04-27.15 602.09-11.45Q602.54-9.5 602.92-7.65 603.29-5.8 603.69-3.9L603.69-3.9 603.94-3.9Q604.39-5.8 604.82-7.65 605.24-9.5 605.74-11.45L605.74-11.45 609.99-27.15 614.44-27.15 618.69-11.45Q619.19-9.5 619.67-7.65 620.14-5.8 620.59-3.9L620.59-3.9 620.84-3.9Q621.24-5.8 621.64-7.65 622.04-9.5 622.49-11.45L622.49-11.45 626.44-27.15 630.84-27.15 623.49 0 617.94 0 614.04-14.65Q613.54-16.55 613.09-18.48 612.64-20.4 612.19-22.45L612.19-22.45 611.94-22.45Q611.49-20.4 611.07-18.45 610.64-16.5 610.09-14.55L610.09-14.55 606.24 0ZM647.39 0.65L647.39 0.65Q643.74 0.65 640.79-1.05 637.84-2.75 636.12-5.93 634.39-9.1 634.39-13.55L634.39-13.55Q634.39-16.9 635.39-19.53 636.39-22.15 638.12-24.03 639.84-25.9 642.04-26.88 644.24-27.85 646.54-27.85L646.54-27.85Q650.04-27.85 652.44-26.3 654.84-24.75 656.12-21.88 657.39-19 657.39-15.1L657.39-15.1Q657.39-14.35 657.34-13.7 657.29-13.05 657.19-12.5L657.19-12.5 638.89-12.5Q639.04-9.6 640.22-7.48 641.39-5.35 643.34-4.17 645.29-3 647.89-3L647.89-3Q649.89-3 651.52-3.58 653.14-4.15 654.69-5.15L654.69-5.15 656.29-2.1Q654.54-0.95 652.34-0.15 650.14 0.65 647.39 0.65ZM638.84-15.75L638.84-15.75 653.39-15.75Q653.39-19.85 651.62-22.03 649.84-24.2 646.64-24.2L646.64-24.2Q644.74-24.2 643.07-23.2 641.39-22.2 640.27-20.35 639.14-18.5 638.84-15.75ZM668.69 0L664.09 0 664.09-27.15 667.84-27.15 668.29-22.2 668.39-22.2Q669.79-24.8 671.81-26.33 673.84-27.85 676.09-27.85L676.09-27.85Q677.04-27.85 677.71-27.73 678.39-27.6 678.99-27.25L678.99-27.25 678.14-23.3Q677.44-23.5 676.89-23.63 676.34-23.75 675.49-23.75L675.49-23.75Q673.84-23.75 671.94-22.33 670.04-20.9 668.69-17.45L668.69-17.45 668.69 0ZM699.73 0L695.13 0 695.13-36.65 705.58-36.65Q709.68-36.65 712.78-35.63 715.88-34.6 717.58-32.25 719.28-29.9 719.28-25.9L719.28-25.9Q719.28-22.05 717.58-19.55 715.88-17.05 712.83-15.83 709.78-14.6 705.78-14.6L705.78-14.6 699.73-14.6 699.73 0ZM699.73-32.9L699.73-18.35 705.18-18.35Q709.98-18.35 712.33-20.15 714.68-21.95 714.68-25.9L714.68-25.9Q714.68-29.9 712.26-31.4 709.83-32.9 704.98-32.9L704.98-32.9 699.73-32.9ZM735.83 0.65L735.83 0.65Q732.18 0.65 729.23-1.05 726.28-2.75 724.56-5.93 722.83-9.1 722.83-13.55L722.83-13.55Q722.83-16.9 723.83-19.53 724.83-22.15 726.56-24.03 728.28-25.9 730.48-26.88 732.68-27.85 734.98-27.85L734.98-27.85Q738.48-27.85 740.88-26.3 743.28-24.75 744.56-21.88 745.83-19 745.83-15.1L745.83-15.1Q745.83-14.35 745.78-13.7 745.73-13.05 745.63-12.5L745.63-12.5 727.33-12.5Q727.48-9.6 728.66-7.48 729.83-5.35 731.78-4.17 733.73-3 736.33-3L736.33-3Q738.33-3 739.96-3.58 741.58-4.15 743.13-5.15L743.13-5.15 744.73-2.1Q742.98-0.95 740.78-0.15 738.58 0.65 735.83 0.65ZM727.28-15.75L727.28-15.75 741.83-15.75Q741.83-19.85 740.06-22.03 738.28-24.2 735.08-24.2L735.08-24.2Q733.18-24.2 731.51-23.2 729.83-22.2 728.71-20.35 727.58-18.5 727.28-15.75ZM763.08 0.65L763.08 0.65Q759.78 0.65 756.88-1.03 753.98-2.7 752.25-5.88 750.53-9.05 750.53-13.55L750.53-13.55Q750.53-18.1 752.25-21.28 753.98-24.45 756.88-26.15 759.78-27.85 763.08-27.85L763.08-27.85Q765.58-27.85 767.85-26.9 770.13-25.95 771.88-24.1 773.63-22.25 774.63-19.6 775.63-16.95 775.63-13.55L775.63-13.55Q775.63-9.05 773.88-5.88 772.13-2.7 769.28-1.03 766.43 0.65 763.08 0.65ZM763.08-3.15L763.08-3.15Q765.43-3.15 767.2-4.45 768.98-5.75 769.98-8.1 770.98-10.45 770.98-13.55L770.98-13.55Q770.98-16.7 769.98-19.05 768.98-21.4 767.2-22.7 765.43-24 763.08-24L763.08-24Q760.73-24 758.95-22.7 757.18-21.4 756.2-19.05 755.23-16.7 755.23-13.55L755.23-13.55Q755.23-10.45 756.2-8.1 757.18-5.75 758.95-4.45 760.73-3.15 763.08-3.15ZM787.43 11.45L782.83 11.45 782.83-27.15 786.58-27.15 787.03-24 787.13-24Q788.98-25.55 791.2-26.7 793.43-27.85 795.78-27.85L795.78-27.85Q799.28-27.85 801.7-26.13 804.13-24.4 805.35-21.3 806.58-18.2 806.58-14L806.58-14Q806.58-9.35 804.9-6.08 803.23-2.8 800.55-1.07 797.88 0.65 794.78 0.65L794.78 0.65Q792.93 0.65 791.03-0.18 789.13-1 787.28-2.5L787.28-2.5 787.43 2.25 787.43 11.45ZM794.03-3.2L794.03-3.2Q796.28-3.2 798.05-4.48 799.83-5.75 800.83-8.18 801.83-10.6 801.83-13.95L801.83-13.95Q801.83-16.95 801.1-19.23 800.38-21.5 798.83-22.75 797.28-24 794.63-24L794.63-24Q792.93-24 791.15-23.05 789.38-22.1 787.43-20.3L787.43-20.3 787.43-6Q789.23-4.45 790.98-3.83 792.73-3.2 794.03-3.2ZM818.62 0.65L818.62 0.65Q816.92 0.65 815.87-0.05 814.82-0.75 814.32-2.13 813.82-3.5 813.82-5.4L813.82-5.4 813.82-39.8 818.42-39.8 818.42-5.1Q818.42-4.05 818.8-3.6 819.17-3.15 819.67-3.15L819.67-3.15Q819.87-3.15 820.07-3.18 820.27-3.2 820.62-3.25L820.62-3.25 821.27 0.25Q820.77 0.4 820.17 0.53 819.57 0.65 818.62 0.65ZM839.02 0.65L839.02 0.65Q835.37 0.65 832.42-1.05 829.47-2.75 827.75-5.93 826.02-9.1 826.02-13.55L826.02-13.55Q826.02-16.9 827.02-19.53 828.02-22.15 829.75-24.03 831.47-25.9 833.67-26.88 835.87-27.85 838.17-27.85L838.17-27.85Q841.67-27.85 844.07-26.3 846.47-24.75 847.75-21.88 849.02-19 849.02-15.1L849.02-15.1Q849.02-14.35 848.97-13.7 848.92-13.05 848.82-12.5L848.82-12.5 830.52-12.5Q830.67-9.6 831.85-7.48 833.02-5.35 834.97-4.17 836.92-3 839.52-3L839.52-3Q841.52-3 843.15-3.58 844.77-4.15 846.32-5.15L846.32-5.15 847.92-2.1Q846.17-0.95 843.97-0.15 841.77 0.65 839.02 0.65ZM830.47-15.75L830.47-15.75 845.02-15.75Q845.02-19.85 843.25-22.03 841.47-24.2 838.27-24.2L838.27-24.2Q836.37-24.2 834.7-23.2 833.02-22.2 831.9-20.35 830.77-18.5 830.47-15.75ZM854.87 9.5L854.87 9.5 853.77 6.8Q856.12 5.75 857.47 3.95 858.82 2.15 858.77-0.15L858.77-0.15 858.27-4.25 860.52-0.9Q860.02-0.35 859.44-0.13 858.87 0.1 858.22 0.1L858.22 0.1Q856.87 0.1 855.87-0.75 854.87-1.6 854.87-3.1L854.87-3.1Q854.87-4.6 855.89-5.45 856.92-6.3 858.32-6.3L858.32-6.3Q860.12-6.3 861.14-4.88 862.17-3.45 862.17-0.95L862.17-0.95Q862.17 2.65 860.19 5.35 858.22 8.05 854.87 9.5ZM893.51 0L888.86 0 888.86-32.75 877.76-32.75 877.76-36.65 904.61-36.65 904.61-32.75 893.51-32.75 893.51 0ZM912.61 0L908.01 0 908.01-27.15 911.76-27.15 912.21-22.2 912.31-22.2Q913.71-24.8 915.74-26.33 917.76-27.85 920.01-27.85L920.01-27.85Q920.96-27.85 921.64-27.73 922.31-27.6 922.91-27.25L922.91-27.25 922.06-23.3Q921.36-23.5 920.81-23.63 920.26-23.75 919.41-23.75L919.41-23.75Q917.76-23.75 915.86-22.33 913.96-20.9 912.61-17.45L912.61-17.45 912.61 0ZM932.21 0.65L932.21 0.65Q929.96 0.65 928.16-0.25 926.36-1.15 925.33-2.88 924.31-4.6 924.31-7.05L924.31-7.05Q924.31-11.5 928.28-13.88 932.26-16.25 940.96-17.2L940.96-17.2Q940.96-18.95 940.48-20.53 940.01-22.1 938.81-23.08 937.61-24.05 935.36-24.05L935.36-24.05Q933.01-24.05 930.93-23.13 928.86-22.2 927.21-21.15L927.21-21.15 925.46-24.3Q926.71-25.1 928.36-25.93 930.01-26.75 931.96-27.3 933.91-27.85 936.11-27.85L936.11-27.85Q939.41-27.85 941.48-26.45 943.56-25.05 944.53-22.58 945.51-20.1 945.51-16.7L945.51-16.7 945.51 0 941.76 0 941.36-3.25 941.21-3.25Q939.31-1.65 937.03-0.5 934.76 0.65 932.21 0.65ZM933.51-3.05L933.51-3.05Q935.46-3.05 937.23-3.95 939.01-4.85 940.96-6.6L940.96-6.6 940.96-14.15Q936.41-13.65 933.71-12.73 931.01-11.8 929.86-10.48 928.71-9.15 928.71-7.35L928.71-7.35Q928.71-5 930.11-4.03 931.51-3.05 933.51-3.05ZM958.71 0L954.11 0 954.11-27.15 957.86-27.15 958.31-23.2 958.41-23.2Q960.36-25.15 962.53-26.5 964.71-27.85 967.51-27.85L967.51-27.85Q971.81-27.85 973.81-25.13 975.81-22.4 975.81-17.2L975.81-17.2 975.81 0 971.26 0 971.26-16.6Q971.26-20.45 970.03-22.15 968.81-23.85 966.11-23.85L966.11-23.85Q964.01-23.85 962.36-22.8 960.71-21.75 958.71-19.7L958.71-19.7 958.71 0ZM991.7 0.65L991.7 0.65Q988.85 0.65 986.18-0.43 983.5-1.5 981.6-3.1L981.6-3.1 983.8-6.15Q985.6-4.7 987.5-3.8 989.4-2.9 991.85-2.9L991.85-2.9Q994.55-2.9 995.88-4.13 997.2-5.35 997.2-7.15L997.2-7.15Q997.2-8.55 996.28-9.47 995.35-10.4 993.93-11.08 992.5-11.75 991-12.3L991-12.3Q989.1-13.05 987.28-13.98 985.45-14.9 984.28-16.38 983.1-17.85 983.1-20.15L983.1-20.15Q983.1-22.35 984.2-24.08 985.3-25.8 987.4-26.83 989.5-27.85 992.45-27.85L992.45-27.85Q994.95-27.85 997.13-26.95 999.3-26.05 1000.85-24.75L1000.85-24.75 998.65-21.9Q997.25-22.9 995.78-23.6 994.3-24.3 992.5-24.3L992.5-24.3Q989.9-24.3 988.68-23.13 987.45-21.95 987.45-20.35L987.45-20.35Q987.45-19.1 988.28-18.25 989.1-17.4 990.45-16.82 991.8-16.25 993.3-15.65L993.3-15.65Q994.8-15.1 996.28-14.45 997.75-13.8 998.93-12.9 1000.1-12 1000.83-10.68 1001.55-9.35 1001.55-7.4L1001.55-7.4Q1001.55-5.2 1000.43-3.35 999.3-1.5 997.13-0.43 994.95 0.65 991.7 0.65ZM1013.3 0L1008.75 0 1008.75-31.5Q1008.75-34.25 1009.6-36.25 1010.45-38.25 1012.2-39.35 1013.95-40.45 1016.65-40.45L1016.65-40.45Q1017.9-40.45 1019.08-40.2 1020.25-39.95 1021.2-39.6L1021.2-39.6 1020.2-36.05Q1018.7-36.8 1017.15-36.8L1017.15-36.8Q1015.2-36.8 1014.25-35.45 1013.3-34.1 1013.3-31.45L1013.3-31.45 1013.3 0ZM1019.05-23.45L1005.05-23.45 1005.05-26.9 1008.95-27.15 1019.05-27.15 1019.05-23.45ZM1034.1 0.65L1034.1 0.65Q1030.8 0.65 1027.9-1.03 1025-2.7 1023.27-5.88 1021.55-9.05 1021.55-13.55L1021.55-13.55Q1021.55-18.1 1023.27-21.28 1025-24.45 1027.9-26.15 1030.8-27.85 1034.1-27.85L1034.1-27.85Q1036.6-27.85 1038.87-26.9 1041.15-25.95 1042.9-24.1 1044.65-22.25 1045.65-19.6 1046.65-16.95 1046.65-13.55L1046.65-13.55Q1046.65-9.05 1044.9-5.88 1043.15-2.7 1040.3-1.03 1037.45 0.65 1034.1 0.65ZM1034.1-3.15L1034.1-3.15Q1036.45-3.15 1038.22-4.45 1040-5.75 1041-8.1 1042-10.45 1042-13.55L1042-13.55Q1042-16.7 1041-19.05 1040-21.4 1038.22-22.7 1036.45-24 1034.1-24L1034.1-24Q1031.75-24 1029.97-22.7 1028.2-21.4 1027.22-19.05 1026.25-16.7 1026.25-13.55L1026.25-13.55Q1026.25-10.45 1027.22-8.1 1028.2-5.75 1029.97-4.45 1031.75-3.15 1034.1-3.15ZM1058.45 0L1053.85 0 1053.85-27.15 1057.6-27.15 1058.05-22.2 1058.15-22.2Q1059.55-24.8 1061.57-26.33 1063.6-27.85 1065.85-27.85L1065.85-27.85Q1066.8-27.85 1067.47-27.73 1068.15-27.6 1068.75-27.25L1068.75-27.25 1067.9-23.3Q1067.2-23.5 1066.65-23.63 1066.1-23.75 1065.25-23.75L1065.25-23.75Q1063.6-23.75 1061.7-22.33 1059.8-20.9 1058.45-17.45L1058.45-17.45 1058.45 0ZM1077.84 0L1073.24 0 1073.24-27.15 1076.99-27.15 1077.44-23.2 1077.54-23.2Q1079.34-25.15 1081.47-26.5 1083.59-27.85 1085.99-27.85L1085.99-27.85Q1089.14-27.85 1090.89-26.45 1092.64-25.05 1093.49-22.65L1093.49-22.65Q1095.64-24.95 1097.82-26.4 1099.99-27.85 1102.49-27.85L1102.49-27.85Q1106.64-27.85 1108.67-25.13 1110.69-22.4 1110.69-17.2L1110.69-17.2 1110.69 0 1106.14 0 1106.14-16.6Q1106.14-20.45 1104.92-22.15 1103.69-23.85 1101.09-23.85L1101.09-23.85Q1099.54-23.85 1097.87-22.83 1096.19-21.8 1094.24-19.7L1094.24-19.7 1094.24 0 1089.69 0 1089.69-16.6Q1089.69-20.45 1088.47-22.15 1087.24-23.85 1084.64-23.85L1084.64-23.85Q1083.09-23.85 1081.39-22.83 1079.69-21.8 1077.84-19.7L1077.84-19.7 1077.84 0ZM1144.99 0.65L1144.99 0.65Q1141.59 0.65 1138.66-0.63 1135.74-1.9 1133.59-4.35 1131.44-6.8 1130.24-10.33 1129.04-13.85 1129.04-18.3L1129.04-18.3Q1129.04-22.75 1130.26-26.28 1131.49-29.8 1133.69-32.25 1135.89-34.7 1138.84-36 1141.79-37.3 1145.29-37.3L1145.29-37.3Q1148.64-37.3 1151.19-35.93 1153.74-34.55 1155.34-32.8L1155.34-32.8 1152.84-29.8Q1151.39-31.35 1149.54-32.3 1147.69-33.25 1145.34-33.25L1145.34-33.25Q1141.89-33.25 1139.29-31.45 1136.69-29.65 1135.24-26.33 1133.79-23 1133.79-18.45L1133.79-18.45Q1133.79-13.8 1135.19-10.43 1136.59-7.05 1139.14-5.23 1141.69-3.4 1145.19-3.4L1145.19-3.4Q1147.79-3.4 1149.86-4.5 1151.94-5.6 1153.69-7.55L1153.69-7.55 1156.24-4.6Q1154.09-2.1 1151.34-0.73 1148.59 0.65 1144.99 0.65ZM1168.89 0.65L1168.89 0.65Q1166.64 0.65 1164.84-0.25 1163.04-1.15 1162.01-2.88 1160.99-4.6 1160.99-7.05L1160.99-7.05Q1160.99-11.5 1164.96-13.88 1168.94-16.25 1177.64-17.2L1177.64-17.2Q1177.64-18.95 1177.16-20.53 1176.69-22.1 1175.49-23.08 1174.29-24.05 1172.04-24.05L1172.04-24.05Q1169.69-24.05 1167.61-23.13 1165.54-22.2 1163.89-21.15L1163.89-21.15 1162.14-24.3Q1163.39-25.1 1165.04-25.93 1166.69-26.75 1168.64-27.3 1170.59-27.85 1172.79-27.85L1172.79-27.85Q1176.09-27.85 1178.16-26.45 1180.24-25.05 1181.21-22.58 1182.19-20.1 1182.19-16.7L1182.19-16.7 1182.19 0 1178.44 0 1178.04-3.25 1177.89-3.25Q1175.99-1.65 1173.71-0.5 1171.44 0.65 1168.89 0.65ZM1170.19-3.05L1170.19-3.05Q1172.14-3.05 1173.91-3.95 1175.69-4.85 1177.64-6.6L1177.64-6.6 1177.64-14.15Q1173.09-13.65 1170.39-12.73 1167.69-11.8 1166.54-10.48 1165.39-9.15 1165.39-7.35L1165.39-7.35Q1165.39-5 1166.79-4.03 1168.19-3.05 1170.19-3.05ZM1195.38 0L1190.78 0 1190.78-27.15 1194.53-27.15 1194.98-22.2 1195.08-22.2Q1196.48-24.8 1198.51-26.33 1200.53-27.85 1202.78-27.85L1202.78-27.85Q1203.73-27.85 1204.41-27.73 1205.08-27.6 1205.68-27.25L1205.68-27.25 1204.83-23.3Q1204.13-23.5 1203.58-23.63 1203.03-23.75 1202.18-23.75L1202.18-23.75Q1200.53-23.75 1198.63-22.33 1196.73-20.9 1195.38-17.45L1195.38-17.45 1195.38 0ZM1220.48 0.65L1220.48 0.65Q1216.83 0.65 1213.88-1.05 1210.93-2.75 1209.21-5.93 1207.48-9.1 1207.48-13.55L1207.48-13.55Q1207.48-16.9 1208.48-19.53 1209.48-22.15 1211.21-24.03 1212.93-25.9 1215.13-26.88 1217.33-27.85 1219.63-27.85L1219.63-27.85Q1223.13-27.85 1225.53-26.3 1227.93-24.75 1229.21-21.88 1230.48-19 1230.48-15.1L1230.48-15.1Q1230.48-14.35 1230.43-13.7 1230.38-13.05 1230.28-12.5L1230.28-12.5 1211.98-12.5Q1212.13-9.6 1213.31-7.48 1214.48-5.35 1216.43-4.17 1218.38-3 1220.98-3L1220.98-3Q1222.98-3 1224.61-3.58 1226.23-4.15 1227.78-5.15L1227.78-5.15 1229.38-2.1Q1227.63-0.95 1225.43-0.15 1223.23 0.65 1220.48 0.65ZM1211.93-15.75L1211.93-15.75 1226.48-15.75Q1226.48-19.85 1224.71-22.03 1222.93-24.2 1219.73-24.2L1219.73-24.2Q1217.83-24.2 1216.16-23.2 1214.48-22.2 1213.36-20.35 1212.23-18.5 1211.93-15.75Z" opacity="1" transform="matrix(1,0,0,1,0,0)" fill="#130912" class="slogan-text-1" data-fill-palette-color="secondary" id="text-1"></path></svg></g></svg></g></svg></g></svg></g><g><svg viewBox="0 0 89.04292414326771 89.0429241432677" height="89.0429241432677" width="89.04292414326771"><g><svg></svg></g><g id="icon-0"><svg viewBox="0 0 89.04292414326771 89.0429241432677" height="89.0429241432677" width="89.04292414326771"><g><path transform="scale(0.89043,0.89043)" d="M30 100c-16.569 0-30-13.431-30-30v-40c0-16.569 13.431-30 30-30h40c16.569 0 30 13.431 30 30v40c0 16.569-13.431 30-30 30z" fill="#e77917" fill-rule="nonzero" stroke="none" stroke-width="1" stroke-linecap="butt" stroke-linejoin="miter" stroke-miterlimit="10" stroke-dasharray="" stroke-dashoffset="0" font-family="none" font-weight="none" font-size="none" text-anchor="none" style="mix-blend-mode: normal" data-fill-palette-color="accent"></path></g><g transform="matrix(1,0,0,1,17.808584828653544,17.81637056961623)"><svg viewBox="0 0 53.425754485960624 53.41018300403524" height="53.41018300403524" width="53.425754485960624"><g><svg xmlns="http://www.w3.org/2000/svg" xmlns:xlink="http://www.w3.org/1999/xlink" version="1.1" x="0" y="0" viewBox="5.143 5.361 89.206 89.17999999999999" enable-background="new 0 0 100 100" xml:space="preserve" height="53.41018300403524" width="53.425754485960624" class="icon-dxe-0" data-fill-palette-color="quaternary" id="dxe-0"><path fill-rule="evenodd" clip-rule="evenodd" d="M50.026 94.541C25.69 94.528 5.245 76.394 5.143 49.977 5.245 23.509 26.749 5.361 50.078 5.361 76.75 5.361 94.247 29.277 94.247 49.976 94.247 57.021 94.247 57.301 91.899 64.052L39.282 64.078C38.031 64.065 37.023 62.738 37.023 61.487S38.057 59.534 39.295 59.534L50.002 59.432V58.207H32.428A2.255 2.255 0 0 1 30.169 55.948C30.169 54.697 31.203 53.715 32.441 53.715H50.001L49.988 52.222H30.233C28.982 52.209 27.974 51.201 27.974 49.95S28.995 47.691 30.233 47.691H50.001V46.185H34.763A2.274 2.274 0 0 1 32.504 43.913C32.504 42.662 33.538 41.718 34.763 41.743H61.397V40.15H52.17C50.97 40.137 49.988 39.129 49.988 37.878S51.149 35.67 52.17 35.67L61.295 35.644C68.072 35.644 72.64 41.744 72.64 46.185H76.277C75.371 34.699 65.098 23.507 50.077 23.52 32.53 23.509 23.66 38.006 23.711 49.977 23.66 64.079 35.108 76.1 49.478 76.394 49.478 71.966 54.047 65.865 60.823 65.865L69.948 65.891C70.969 65.891 72.13 66.848 72.13 68.099S71.147 70.358 69.948 70.371H60.721V71.966H87.559C88.784 71.94 89.818 72.885 89.818 74.136S88.81 76.395 87.559 76.408H72.117V77.914H92.09A2.263 2.263 0 0 1 94.349 80.173 2.274 2.274 0 0 1 92.09 82.445H72.13L72.117 83.938H89.882C91.12 83.938 92.154 84.921 92.154 86.171A2.255 2.255 0 0 1 89.895 88.43H72.117V89.859L83.028 89.961C84.266 89.961 85.3 90.663 85.3 91.914S84.292 94.492 83.041 94.505z" fill="#fafafa" data-fill-palette-color="quaternary"></path></svg></g></svg></g></svg></g></svg></g></svg></g><defs></defs></svg><rect width="395.52" height="71.34911401908931" fill="none" stroke="none" visibility="hidden"></rect></g></svg></g></svg>